<svg width="197" height="175" viewBox="0 0 197 175" fill="none" xmlns="http://www.w3.org/2000/svg">
<path d="M147 110H139.1L136.3 107.3C146.1 95.9 152 81.1 152 65C152 29.1 122.9 0 86.9999 0C52.7999 0 24.7999 26.4 22.2999 60H42.4999C44.9999 37.5 63.7999 20 86.9999 20C111.9 20 132 40.1 132 65C132 89.9 111.9 110 86.9999 110C85.2999 110 83.6999 109.7 81.9999 109.5V129.7C83.6999 129.9 85.2999 130 86.9999 130C103.1 130 117.9 124.1 129.3 114.3L132 117.1V125L182 174.9L196.9 160L147 110Z" />
<path d="M56.6999 78.2L32 102.9L7.29995 78.2L0.199951 85.3L24.9 110L0.199951 134.7L7.29995 141.8L32 117.1L56.6999 141.8L63.7999 134.7L39.1 110L63.7999 85.3L56.6999 78.2Z" />
</svg>
