<svg width="58" height="18" viewBox="0 0 58 18" fill="none" xmlns="http://www.w3.org/2000/svg">
<path d="M0.16 18V0.863999H3.784V15H10.744V18H0.16ZM24.2183 18L22.9703 13.92H16.7303L15.4823 18H11.5703L17.6183 0.792H22.0583L28.1303 18H24.2183ZM20.8583 6.888C20.7783 6.616 20.6743 6.272 20.5463 5.856C20.4183 5.44 20.2903 5.016 20.1623 4.584C20.0343 4.152 19.9303 3.776 19.8503 3.456C19.7703 3.776 19.6583 4.176 19.5143 4.656C19.3863 5.12 19.2583 5.568 19.1303 6C19.0183 6.416 18.9303 6.712 18.8663 6.888L17.6423 10.872H22.1063L20.8583 6.888ZM44.5086 9.264C44.5086 11.184 44.1406 12.792 43.4046 14.088C42.6686 15.384 41.5966 16.36 40.1886 17.016C38.7966 17.672 37.1166 18 35.1486 18H30.3006V0.863999H35.6766C37.4686 0.863999 39.0206 1.184 40.3326 1.824C41.6606 2.464 42.6846 3.408 43.4046 4.656C44.1406 5.888 44.5086 7.424 44.5086 9.264ZM40.7406 9.36C40.7406 8.096 40.5566 7.056 40.1886 6.24C39.8206 5.424 39.2686 4.824 38.5326 4.44C37.8126 4.04 36.9246 3.84 35.8686 3.84H33.9246V15H35.4846C37.2606 15 38.5806 14.528 39.4446 13.584C40.3086 12.64 40.7406 11.232 40.7406 9.36ZM57.9303 18H48.0663V0.863999H57.9303V3.84H51.6903V7.608H57.4983V10.584H51.6903V15H57.9303V18Z" fill="#1F2937"/>
</svg>
