<svg width="120" height="32" viewBox="0 0 120 32" fill="none" xmlns="http://www.w3.org/2000/svg">
<path d="M25.8643 5.84H30.2483V22.544H38.3763V26H25.8643V5.84ZM46.145 18.128H51.265L50.337 15.44C50.0383 14.608 49.761 13.776 49.505 12.944C49.249 12.0907 49.0037 11.2373 48.769 10.384H48.705C48.4703 11.1947 48.2143 12.0267 47.937 12.88C47.6597 13.712 47.3717 14.5653 47.073 15.44L46.145 18.128ZM46.529 5.84H51.073L58.529 26H53.889L52.321 21.36H45.153L43.585 26H39.009L46.529 5.84ZM68.123 5.84C69.6803 5.84 71.099 6.04267 72.379 6.448C73.659 6.85333 74.7577 7.46133 75.675 8.272C76.5923 9.08267 77.2963 10.096 77.787 11.312C78.299 12.5067 78.555 13.904 78.555 15.504C78.555 17.3387 78.2563 18.9173 77.659 20.24C77.0617 21.5413 76.251 22.6293 75.227 23.504C74.203 24.3573 72.9977 24.9867 71.611 25.392C70.2457 25.7973 68.795 26 67.259 26H61.083V5.84H68.123ZM65.467 22.608H66.971C67.867 22.608 68.731 22.5013 69.563 22.288C70.4163 22.0533 71.163 21.6693 71.803 21.136C72.443 20.5813 72.955 19.856 73.339 18.96C73.723 18.0427 73.915 16.8907 73.915 15.504C73.915 13.4773 73.339 11.9307 72.187 10.864C71.035 9.776 69.4883 9.232 67.547 9.232H65.467V22.608ZM82.0205 5.84H95.1405V9.232H86.4045V13.84H94.3085V17.2H86.4045V22.608H95.2365V26H82.0205V5.84Z" fill="#111111"/>
</svg>
